<svg width="1200" height="720" viewBox="0 0 1200 720" fill="none" xmlns="http://www.w3.org/2000/svg">
  <rect width="1200" height="720" rx="44" fill="#0A0F1A"/>
  <rect width="1200" height="720" rx="44" fill="url(#bg)"/>
  <g opacity="0.16">
    <rect x="90" y="94" width="1020" height="532" rx="34" stroke="#E8F4FF"/>
    <rect x="122" y="126" width="956" height="468" rx="26" stroke="#E8F4FF"/>
  </g>
  <rect x="124" y="120" width="428" height="480" rx="28" fill="#FFFFFF" fill-opacity="0.05"/>
  <rect x="156" y="158" width="146" height="36" rx="18" fill="#59F7A8"/>
  <text x="194" y="183" fill="#07111F" font-family="'IBM Plex Mono', monospace" font-size="20">archive</text>
  <text x="154" y="292" fill="#F8FBFF" font-family="'Manrope', sans-serif" font-size="82" font-weight="800">CS</text>
  <text x="154" y="376" fill="#F8FBFF" font-family="'Manrope', sans-serif" font-size="82" font-weight="800">Course</text>
  <text x="154" y="460" fill="#F8FBFF" font-family="'Manrope', sans-serif" font-size="82" font-weight="800">Archive</text>
  <g opacity="0.8">
    <rect x="652" y="178" width="354" height="78" rx="20" fill="#111A2C"/>
    <rect x="652" y="278" width="246" height="22" rx="11" fill="#59F7A8"/>
    <rect x="652" y="322" width="320" height="18" rx="9" fill="#D7E5F9" fill-opacity="0.74"/>
    <rect x="652" y="356" width="286" height="18" rx="9" fill="#D7E5F9" fill-opacity="0.46"/>
    <rect x="652" y="390" width="188" height="18" rx="9" fill="#D7E5F9" fill-opacity="0.24"/>
    <rect x="652" y="448" width="420" height="108" rx="24" fill="#0E1525"/>
  </g>
  <text x="684" y="228" fill="#F6FAFF" font-family="'IBM Plex Mono', monospace" font-size="30">notes / lectures / labs</text>
  <text x="154" y="634" fill="#B4C3D8" font-family="'IBM Plex Mono', monospace" font-size="26">organized study materials across multiple academic years</text>
  <defs>
    <linearGradient id="bg" x1="118" y1="94" x2="1084" y2="648" gradientUnits="userSpaceOnUse">
      <stop stop-color="#10203A"/>
      <stop offset="1" stop-color="#070E18"/>
    </linearGradient>
  </defs>
</svg>
